<?xml version="1.0" encoding="UTF-8"?>
<svg version="1.1" xmlns="http://www.w3.org/2000/svg" width="2000" height="2000">
<path d="M0 0 C2.47644422 -0.00104436 4.95288829 -0.00252652 7.42933202 -0.00440437 C12.81105344 -0.00748178 18.19276157 -0.00747853 23.5744822 -0.00472082 C31.63112165 -0.00061115 39.68775293 -0.00231096 47.74439257 -0.00510346 C61.47842786 -0.00969488 75.21245944 -0.00955764 88.94649506 -0.00682259 C102.85938339 -0.00406881 116.77226929 -0.00349302 130.68515778 -0.00555992 C131.56476374 -0.00568909 132.4443697 -0.00581827 133.35063038 -0.00595135 C136.93328164 -0.00648464 140.5159329 -0.00703335 144.09858416 -0.00760163 C177.44905454 -0.01288794 210.79952328 -0.013251 244.1499939 -0.01045418 C245.13775467 -0.01037138 246.12551544 -0.01028859 247.14320836 -0.01020328 C248.13255273 -0.01012035 249.12189709 -0.01003742 250.14122158 -0.00995198 C280.28424191 -0.00742864 310.42726157 -0.00677748 340.57028198 -0.00797462 C342.5889314 -0.0080521 344.60758081 -0.00812926 346.62623022 -0.00820609 C354.73838125 -0.00851656 362.85053228 -0.00883523 370.96268331 -0.00916586 C393.63938815 -0.01008286 416.316093 -0.01065346 438.99279785 -0.010952 C440.02543423 -0.01096564 441.0580706 -0.01097929 442.12199899 -0.01099335 C475.02540421 -0.01140261 507.9288092 -0.01027579 540.83221436 -0.00810242 C541.89937897 -0.00803217 542.96654358 -0.00796192 544.06604652 -0.00788954 C561.39601941 -0.0067446 578.7259923 -0.00552513 596.05596518 -0.00429937 C664.78829751 0.00055695 733.52062789 0.00033155 802.25296021 -0.00452995 C819.5741984 -0.00575115 836.8954366 -0.0069622 854.2166748 -0.00810242 C855.283212 -0.00817287 856.3497492 -0.00824331 857.4486057 -0.0083159 C890.3177676 -0.01047213 923.18692934 -0.01138635 956.05609131 -0.010952 C957.60390789 -0.01093162 957.60390789 -0.01093162 959.1829935 -0.01091083 C981.83452039 -0.01059835 1004.48604727 -0.00996471 1027.13757414 -0.00904149 C1035.2424653 -0.00871235 1043.34735645 -0.00839927 1051.4522476 -0.00809078 C1053.4685264 -0.00801339 1055.48480519 -0.00793466 1057.50108399 -0.00785459 C1087.63594988 -0.00666107 1117.77081501 -0.00767729 1147.9056808 -0.01020328 C1149.38732196 -0.01032748 1149.38732196 -0.01032748 1150.89889526 -0.01045418 C1151.88483322 -0.01053686 1152.87077118 -0.01061954 1153.88658605 -0.01070473 C1187.14099552 -0.013463 1220.39540303 -0.01244824 1253.64981222 -0.00717343 C1257.22111861 -0.00662108 1260.79242499 -0.00608438 1264.36373138 -0.00555992 C1265.67841685 -0.00536461 1265.67841685 -0.00536461 1267.01966162 -0.00516536 C1280.89476726 -0.00319337 1294.76987047 -0.00456578 1308.6449759 -0.00732893 C1322.28990315 -0.00997495 1335.93482629 -0.00904429 1349.57975302 -0.00431484 C1357.5776686 -0.00164838 1365.5755729 -0.00169813 1373.57348794 -0.00579644 C1379.51458649 -0.00853394 1385.45567547 -0.0060452 1391.39677319 -0.00154016 C1393.78273854 -0.00053396 1396.16870533 -0.00119658 1398.55466953 -0.0037461 C1416.06176183 -0.0211241 1433.03952581 0.24045862 1450.27444458 3.68834114 C1450.93264191 3.81866737 1451.59083923 3.94899361 1452.26898193 4.08326912 C1509.00360269 15.39423966 1560.58796232 40.66712683 1602.65725708 80.46959114 C1604.63881663 82.30536838 1606.60305426 84.03844808 1608.68850708 85.74302864 C1610.97539304 87.66451685 1612.86906378 89.4744125 1614.77444458 91.75084114 C1617.48480695 94.94054707 1620.28622363 98.01016541 1623.14944458 101.06334114 C1668.10263249 150.34027079 1697.80862925 220.69372635 1697.65209508 287.73505223 C1697.65457125 289.25769486 1697.65457125 289.25769486 1697.65709744 290.81109794 C1697.66140352 294.20483032 1697.65862707 297.5985189 1697.65587234 300.99225235 C1697.65752287 303.46355643 1697.65960955 305.93486025 1697.66209245 308.40616363 C1697.66649342 313.79220086 1697.667794 319.1782256 1697.6663641 324.56426348 C1697.6642392 332.62757712 1697.66786163 340.69088129 1697.67257888 348.75419347 C1697.6804457 362.49795942 1697.68354059 376.24172277 1697.68402481 389.9854908 C1697.68452734 403.91338795 1697.68717565 417.8412822 1697.6924324 431.76917839 C1697.69276254 432.64895645 1697.69309267 433.52873451 1697.69343281 434.4351725 C1697.69478282 438.01841339 1697.69614549 441.60165427 1697.69752491 445.18489514 C1697.71382465 487.60110388 1697.72021326 530.01731206 1697.72497278 572.4335234 C1697.72735641 593.55696301 1697.73105997 614.6804023 1697.73500988 635.80384166 C1697.74767442 703.56996434 1697.75845806 771.336087 1697.76185034 839.10221084 C1697.76201258 842.34087986 1697.76217814 845.57954888 1697.76234472 848.81821789 C1697.76267852 855.31335971 1697.763009 861.80850153 1697.76333928 868.30364335 C1697.76372618 875.90778645 1697.76411579 883.51192956 1697.76451035 891.11607266 C1697.76462276 893.29243562 1697.76473418 895.46879858 1697.7648446 897.64516154 C1697.76839353 967.53251152 1697.78346983 1037.41985122 1697.80678234 1107.30719727 C1697.82352768 1157.52748059 1697.83900059 1207.74776196 1697.8435173 1257.9680481 C1697.84365753 1259.51779315 1697.84365753 1259.51779315 1697.84380059 1261.09884619 C1697.84581981 1283.78131699 1697.84697571 1306.46378776 1697.84732918 1329.14625864 C1697.84746535 1337.26294905 1697.84767434 1345.37963945 1697.84792243 1353.49632984 C1697.84798399 1355.51552562 1697.84804231 1357.53472139 1697.84809738 1359.55391716 C1697.84901658 1391.70724606 1697.85897739 1423.86056421 1697.87355487 1456.01388957 C1697.88818307 1488.40879265 1697.89320514 1520.80368256 1697.88513533 1553.19858836 C1697.88402003 1557.6800219 1697.88300934 1562.16145545 1697.882061 1566.64288902 C1697.88187104 1567.52133205 1697.88168107 1568.39977507 1697.88148534 1569.30483758 C1697.87875698 1583.18632759 1697.88607667 1597.06779316 1697.89763437 1610.94927786 C1697.90880235 1624.61575702 1697.9091793 1638.2822018 1697.89826419 1651.94868153 C1697.89219267 1659.94944621 1697.89419555 1667.95010681 1697.90851616 1675.95086156 C1697.91825217 1681.91008992 1697.91211857 1687.86919593 1697.90010583 1693.82842454 C1697.89768849 1696.20992091 1697.90019622 1698.59142928 1697.90850231 1700.97291239 C1698.04481387 1742.83860379 1689.6567626 1783.86955162 1672.52444458 1822.12584114 C1672.12467407 1823.02028938 1671.72490356 1823.91473763 1671.3130188 1824.83629036 C1658.26332549 1853.72796943 1640.64670145 1878.76920221 1619.86868286 1902.58189583 C1618.66201225 1903.96783571 1617.4655989 1905.36269034 1616.27053833 1906.75865364 C1612.68943846 1910.89338735 1609.00236673 1914.61283991 1604.82131958 1918.13755989 C1602.54805676 1920.10540135 1600.37134139 1922.15745161 1598.19412231 1924.23033333 C1543.90044364 1975.59612867 1469.29599938 2000.3172768 1395.5690136 2000.25726891 C1393.1002575 2000.25891972 1390.63150165 2000.26100653 1388.16274625 2000.26348901 C1382.78540271 2000.26788751 1377.40807168 2000.26919134 1372.03072749 2000.26776066 C1363.98042937 2000.26563462 1355.93014074 2000.26925979 1347.87984409 2000.27397544 C1334.15782873 2000.28183994 1320.43581596 2000.28493704 1306.71379852 2000.28542137 C1292.80889637 2000.28592398 1278.90399712 2000.28857318 1264.99909592 2000.29382896 C1264.12060953 2000.2941591 1263.24212314 2000.29448923 1262.33701595 2000.29482937 C1258.75900689 2000.29617939 1255.18099783 2000.29754206 1251.60298877 2000.29892147 C1209.25438461 2000.31521892 1166.905781 2000.32160952 1124.55717423 2000.32636934 C1103.46672876 2000.32875319 1082.3762836 2000.33245679 1061.28583837 2000.33640644 C993.6222193 2000.34907074 925.95860025 2000.35985444 858.29498001 2000.3632469 C855.06139469 2000.36340914 851.82780938 2000.3635747 848.59422406 2000.36374128 C842.10930285 2000.36407508 835.62438165 2000.36440556 829.13946044 2000.36473584 C821.54732066 2000.36512274 813.95518087 2000.36551235 806.36304109 2000.36590691 C804.19011557 2000.36601933 802.01719006 2000.36613074 799.84426455 2000.36624116 C730.06759176 2000.36979007 660.29092928 2000.38486644 590.51426042 2000.4081789 C540.37177696 2000.42492478 490.22929545 2000.44039736 440.08680916 2000.44491386 C439.05519831 2000.44500735 438.02358746 2000.44510084 436.96071568 2000.44519715 C414.31209429 2000.44721639 391.66347292 2000.44837228 369.01485145 2000.44872574 C360.91023664 2000.44886191 352.80562184 2000.4490709 344.70100704 2000.44931899 C342.68482446 2000.44938055 340.66864188 2000.44943887 338.6524593 2000.44949394 C306.55036138 2000.45041305 274.44827423 2000.46037274 242.34617985 2000.47495143 C210.00214946 2000.48958119 177.65813227 2000.49460073 145.31409917 2000.48653189 C140.83920217 2000.48541659 136.36430515 2000.48440591 131.88940811 2000.48345757 C131.01225102 2000.4832676 130.13509394 2000.48307763 129.23135633 2000.48288191 C115.37311185 2000.4801541 101.51489187 2000.48747143 87.65665271 2000.49903093 C74.01134083 2000.510202 60.36606339 2000.5105728 46.72075094 2000.49966075 C38.73354706 2000.49359174 30.74644745 2000.49558531 22.75925354 2000.50991272 C16.80828866 2000.51965583 10.85744617 2000.51350871 4.90648104 2000.50150239 C2.52964696 2000.49908689 0.15280083 2000.50158611 -2.22401994 2000.50989887 C-78.57778039 2000.75916872 -152.07597591 1972.32221722 -207.60836792 1919.78209114 C-209.59114291 1917.94518788 -211.55693929 1916.21066499 -213.64352417 1914.50474739 C-215.90971692 1912.60114548 -217.77954503 1910.82052383 -219.66305542 1908.56334114 C-222.56374315 1905.14739967 -225.58617815 1901.88397123 -228.66305542 1898.62584114 C-235.20936017 1891.58779518 -240.84991171 1883.90558111 -246.47555542 1876.12584114 C-247.14586792 1875.20673958 -247.81618042 1874.28763802 -248.50680542 1873.34068489 C-281.35746874 1827.42441684 -302.73570684 1769.26486384 -302.60320592 1712.51663005 C-302.6048567 1711.50153497 -302.60650748 1710.48643988 -302.60820828 1709.44058434 C-302.61251436 1706.04685196 -302.60973791 1702.65316338 -302.60698318 1699.25942993 C-302.60863371 1696.78812585 -302.61072039 1694.31682203 -302.61320329 1691.84551865 C-302.61760426 1686.45948142 -302.61890484 1681.07345668 -302.61747494 1675.6874188 C-302.61535004 1667.62410516 -302.61897247 1659.56080099 -302.62368972 1651.49748881 C-302.63155654 1637.75372286 -302.63465143 1624.00995951 -302.63513565 1610.26619148 C-302.63563818 1596.33829433 -302.63828649 1582.41040009 -302.64354324 1568.48250389 C-302.64387338 1567.60272583 -302.64420351 1566.72294778 -302.64454365 1565.81650978 C-302.64589366 1562.23326889 -302.64725633 1558.65002801 -302.64863575 1555.06678714 C-302.66493549 1512.6505784 -302.6713241 1470.23437022 -302.67608362 1427.81815888 C-302.67846725 1406.69471927 -302.68217081 1385.57127998 -302.68612072 1364.44784062 C-302.69878526 1296.68171794 -302.7095689 1228.91559528 -302.71296118 1161.14947145 C-302.71312342 1157.91080243 -302.71328898 1154.67213341 -302.71345556 1151.43346439 C-302.71378936 1144.93832257 -302.71411984 1138.44318075 -302.71445012 1131.94803894 C-302.71483702 1124.34389583 -302.71522663 1116.73975273 -302.71562119 1109.13560962 C-302.7157336 1106.95924666 -302.71584502 1104.7828837 -302.71595544 1102.60652074 C-302.71950437 1032.71917076 -302.73458067 962.83183106 -302.75789318 892.94448501 C-302.77463852 842.72420169 -302.79011143 792.50392032 -302.79462814 742.28363419 C-302.79472163 741.25047082 -302.79481511 740.21730745 -302.79491143 739.15283609 C-302.79693065 716.47036529 -302.79808655 693.78789452 -302.79844002 671.10542364 C-302.79857619 662.98873324 -302.79878518 654.87204284 -302.79903327 646.75535244 C-302.79909483 644.73615666 -302.79915315 642.71696089 -302.79920822 640.69776512 C-302.80012742 608.54443622 -302.81008823 576.39111807 -302.82466571 544.23779271 C-302.83929391 511.84288963 -302.84431598 479.44799972 -302.83624617 447.05309392 C-302.83513087 442.57166039 -302.83412018 438.09022683 -302.83317184 433.60879326 C-302.83298188 432.73035024 -302.83279191 431.85190721 -302.83259618 430.9468447 C-302.82986782 417.06535469 -302.83718751 403.18388912 -302.84874521 389.30240443 C-302.85991319 375.63592526 -302.86029014 361.96948048 -302.84937503 348.30300076 C-302.84330351 340.30223607 -302.84530638 332.30157547 -302.859627 324.30082073 C-302.86936301 318.34159236 -302.86322941 312.38248635 -302.85121667 306.42325775 C-302.84879933 304.04176138 -302.85130706 301.660253 -302.85961315 299.27876989 C-302.99586708 257.43077934 -294.63185246 216.35714373 -277.47555542 178.12584114 C-277.0487146 177.17193489 -276.62187378 176.21802864 -276.18209839 175.23521614 C-263.00252009 146.09075926 -245.21612216 119.30371013 -223.20211792 96.06334114 C-221.33280841 94.08356642 -219.5662096 92.05398591 -217.84274292 89.94615364 C-215.9600255 87.70304807 -214.21070469 85.86007894 -211.97555542 84.00084114 C-208.94108296 81.42408241 -206.02260587 78.76023722 -203.13937378 76.01524544 C-161.68174912 36.8077983 -108.09961439 14.27823556 -52.78805542 3.25084114 C-51.78653442 3.04749153 -50.78501343 2.84414192 -49.75314331 2.6346302 C-33.35679929 -0.46901632 -16.61559597 -0.01775459 0 0 Z " fill="#8B51FE" transform="translate(302.4755554199219,-0.1258411407470703)"/>
<path d="M0 0 C1.22359222 -0.00190338 2.44718445 -0.00380676 3.70785522 -0.00576782 C26.43085556 -0.00176343 48.75858764 1.45622708 71.1875 5.125 C71.99595367 5.25505432 72.80440735 5.38510864 73.63735962 5.519104 C97.04930724 9.30353005 119.61543733 15.3338167 142.25 22.375 C143.24821777 22.68131348 144.24643555 22.98762695 145.27490234 23.30322266 C184.30322986 35.36557601 221.83662316 53.43788574 256.25 75.375 C257.07338867 75.89900391 257.89677734 76.42300781 258.74511719 76.96289062 C276.40947505 88.29309629 293.16612656 100.90738065 309.25 114.375 C309.85682617 114.88272949 310.46365234 115.39045898 311.08886719 115.91357422 C312.8769399 117.415536 314.65884456 118.9244016 316.4375 120.4375 C316.93483643 120.85918457 317.43217285 121.28086914 317.94458008 121.71533203 C328.3699091 130.67405539 338.25739095 140.21497501 347.95458984 149.94921875 C349.64175958 151.64181347 351.33430196 153.32890597 353.02734375 155.015625 C358.64813158 160.63266694 364.12632518 166.29402079 369.25 172.375 C370.12671514 173.38488706 371.00427139 174.39404477 371.8828125 175.40234375 C378.8001386 183.47978567 385.32145472 191.81535114 391.70507812 200.31982422 C393.10272265 202.17908016 394.51114562 204.02957792 395.921875 205.87890625 C409.40646944 223.73067048 421.38468757 242.83522311 432.25 262.375 C432.94222656 263.60138184 432.94222656 263.60138184 433.6484375 264.85253906 C452.51815969 298.2952967 467.19116876 332.94884103 479.25 369.375 C479.53037109 370.20966797 479.81074219 371.04433594 480.09960938 371.90429688 C483.37132775 381.6709821 486.1817049 391.54219103 488.8125 401.5 C489.08143066 402.50474365 489.35036133 403.5094873 489.62744141 404.54467773 C492.69362615 416.41303829 494.83458526 428.29792628 497.25 440.375 C533.88 440.705 570.51 441.035 608.25 441.375 C608.27431474 480.20130309 608.27431474 480.20130309 608.2833252 495.26156616 C608.28388618 496.19905562 608.28444717 497.13654507 608.28502516 498.1024433 C608.32210445 560.15909817 608.35562262 622.21575268 608.37702942 684.27241516 C608.37765068 686.0687951 608.37765068 686.0687951 608.37828448 687.90146554 C608.3872624 713.92584453 608.39557306 739.95022368 608.40319599 765.9746031 C608.40693812 778.7362426 608.41082777 791.49788205 608.41479492 804.25952148 C608.4151872 805.52948398 608.41557948 806.79944647 608.41598364 808.10789268 C608.42877644 849.29948839 608.45131689 890.49107179 608.47889166 931.68266004 C608.50716791 973.99880933 608.52565133 1016.3149518 608.53174497 1058.63111038 C608.53260948 1064.6027096 608.5335864 1070.57430879 608.53463173 1076.54590797 C608.534834 1077.72124877 608.53503627 1078.89658956 608.53524467 1080.10754674 C608.53879511 1099.05656836 608.55272354 1118.00556895 608.5704961 1136.95458197 C608.58812675 1155.98699755 608.59491175 1175.01939219 608.59050413 1194.05181565 C608.58821575 1205.37078876 608.5943647 1216.68968547 608.61239263 1228.00864484 C608.62360214 1235.55993178 608.62401943 1243.11116843 608.61549544 1250.66245878 C608.61094538 1254.97135356 608.61124475 1259.28010338 608.62464955 1263.5889829 C608.63673919 1267.50467979 608.63515891 1271.42011782 608.62241993 1275.33581047 C608.62026758 1276.74764385 608.62320484 1278.15949593 608.63170573 1279.57130535 C608.64248664 1281.48210312 608.63307203 1283.39298319 608.62259549 1285.30378264 C608.62306343 1286.36367098 608.62353137 1287.42355933 608.62401349 1288.5155655 C607.92552767 1293.85567889 604.95474965 1296.91598882 601 1300.3125 C596.54704221 1304.21370646 592.19206326 1308.19884678 587.875 1312.25 C583.31181175 1316.52234642 578.73808796 1320.7815488 574.125 1325 C565.26892466 1333.09934794 556.45441913 1341.2417302 547.6875 1349.4375 C542.22251864 1354.54608466 536.72800848 1359.62000697 531.20703125 1364.66796875 C528.06666841 1367.53990659 524.93861186 1370.42506534 521.8125 1373.3125 C521.27222168 1373.81152832 520.73194336 1374.31055664 520.17529297 1374.82470703 C519.08051694 1375.83604672 517.9857905 1376.84744008 516.89111328 1377.85888672 C514.71909558 1379.86546659 512.54623927 1381.87113692 510.37329102 1383.87670898 C509.28906892 1384.87744158 508.20492206 1385.87825569 507.12084961 1386.87915039 C504.43851745 1389.35561326 501.75534524 1391.83115272 499.0703125 1394.3046875 C493.25699959 1399.66212413 487.46226679 1405.03851874 481.6875 1410.4375 C476.22254144 1415.54610874 470.72800817 1420.62000725 465.20703125 1425.66796875 C462.06666841 1428.53990659 458.93861186 1431.42506534 455.8125 1434.3125 C455.27222168 1434.81152832 454.73194336 1435.31055664 454.17529297 1435.82470703 C453.08051694 1436.83604672 451.9857905 1437.84744008 450.89111328 1438.85888672 C448.71909558 1440.86546659 446.54623927 1442.87113692 444.37329102 1444.87670898 C443.28906892 1445.87744158 442.20492206 1446.87825569 441.12084961 1447.87915039 C438.43851745 1450.35561326 435.75534524 1452.83115272 433.0703125 1455.3046875 C427.25699959 1460.66212413 421.46226679 1466.03851874 415.6875 1471.4375 C410.22254144 1476.54610874 404.72800817 1481.62000725 399.20703125 1486.66796875 C396.06666841 1489.53990659 392.93861186 1492.42506534 389.8125 1495.3125 C389.27222168 1495.81152832 388.73194336 1496.31055664 388.17529297 1496.82470703 C387.08051694 1497.83604672 385.9857905 1498.84744008 384.89111328 1499.85888672 C382.71909558 1501.86546659 380.54623927 1503.87113692 378.37329102 1505.87670898 C377.28906892 1506.87744158 376.20492206 1507.87825569 375.12084961 1508.87915039 C372.43851745 1511.35561326 369.75534524 1513.83115272 367.0703125 1516.3046875 C361.25699959 1521.66212413 355.46226679 1527.03851874 349.6875 1532.4375 C344.22254144 1537.54610874 338.72800817 1542.62000725 333.20703125 1547.66796875 C330.06666841 1550.53990659 326.93861186 1553.42506534 323.8125 1556.3125 C323.27222168 1556.81152832 322.73194336 1557.31055664 322.17529297 1557.82470703 C321.08051694 1558.83604672 319.9857905 1559.84744008 318.89111328 1560.85888672 C316.71909558 1562.86546659 314.54623927 1564.87113692 312.37329102 1566.87670898 C311.28906892 1567.87744158 310.20492206 1568.87825569 309.12084961 1569.87915039 C306.43851745 1572.35561326 303.75534524 1574.83115272 301.0703125 1577.3046875 C295.25699959 1582.66212413 289.46226679 1588.03851874 283.6875 1593.4375 C278.22254144 1598.54610874 272.72800817 1603.62000725 267.20703125 1608.66796875 C264.0666683 1611.53990669 260.93862967 1614.42508448 257.8125 1617.3125 C257.27294678 1617.81080322 256.73339355 1618.30910645 256.17749023 1618.82250977 C254.53483869 1620.33983906 252.89238279 1621.85737982 251.25 1623.375 C242.93329941 1631.05992749 234.6029209 1638.72944358 226.25 1646.375 C224.6 1644.725 222.95 1643.075 221.25 1641.375 C220.92 1643.025 220.59 1644.675 220.25 1646.375 C83.3 1646.375 -53.65 1646.375 -194.75 1646.375 C-195.08 1644.395 -195.41 1642.415 -195.75 1640.375 C-197.07 1640.375 -198.39 1640.375 -199.75 1640.375 C-202.07484599 1638.65135623 -204.17249621 1636.93011376 -206.3125 1635 C-206.93165283 1634.45561279 -207.55080566 1633.91122559 -208.1887207 1633.3503418 C-212.88680047 1629.20362591 -217.50198133 1624.96501714 -222.1171875 1620.7265625 C-224.70393037 1618.41614825 -227.35682252 1616.23177495 -230.0625 1614.0625 C-235.11836567 1609.98751555 -239.83187223 1605.62268006 -244.55566406 1601.17480469 C-248.87191437 1597.13260202 -253.35485366 1593.379192 -257.97265625 1589.68359375 C-261.75817282 1586.53698293 -265.32505162 1583.17812334 -268.91650391 1579.81396484 C-272.24172323 1576.71705297 -275.63729071 1573.77871008 -279.1875 1570.9375 C-284.20841948 1566.91053256 -288.87421817 1562.58285297 -293.55615234 1558.17431641 C-297.87226878 1554.13231413 -302.35503631 1550.37904583 -306.97265625 1546.68359375 C-310.75817282 1543.53698293 -314.32505162 1540.17812334 -317.91650391 1536.81396484 C-321.24172323 1533.71705297 -324.63729071 1530.77871008 -328.1875 1527.9375 C-333.20841948 1523.91053256 -337.87421817 1519.58285297 -342.55615234 1515.17431641 C-346.87226878 1511.13231413 -351.35503631 1507.37904583 -355.97265625 1503.68359375 C-359.75817282 1500.53698293 -363.32505162 1497.17812334 -366.91650391 1493.81396484 C-370.24172323 1490.71705297 -373.63729071 1487.77871008 -377.1875 1484.9375 C-382.20841948 1480.91053256 -386.87421817 1476.58285297 -391.55615234 1472.17431641 C-395.86880851 1468.13555464 -400.34838771 1464.38552798 -404.9609375 1460.69140625 C-409.38734163 1457.01513503 -413.55801112 1453.07073628 -417.765625 1449.1484375 C-422.38353761 1444.84394486 -427.15761607 1440.73187595 -431.9609375 1436.63671875 C-433.16162041 1435.61216908 -434.36213621 1434.58742354 -435.5625 1433.5625 C-436.16868164 1433.04518311 -436.77486328 1432.52786621 -437.39941406 1431.99487305 C-441.1407082 1428.78997771 -444.81115383 1425.52290722 -448.4375 1422.1875 C-451.89015696 1419.01669258 -455.40530966 1415.99464969 -459.0625 1413.0625 C-464.11836567 1408.98751555 -468.83187223 1404.62268006 -473.55566406 1400.17480469 C-477.87191437 1396.13260202 -482.35485366 1392.379192 -486.97265625 1388.68359375 C-490.75817282 1385.53698293 -494.32505162 1382.17812334 -497.91650391 1378.81396484 C-501.24172323 1375.71705297 -504.63729071 1372.77871008 -508.1875 1369.9375 C-513.20841948 1365.91053256 -517.87421817 1361.58285297 -522.55615234 1357.17431641 C-526.87226878 1353.13231413 -531.35503631 1349.37904583 -535.97265625 1345.68359375 C-539.75817282 1342.53698293 -543.32505162 1339.17812334 -546.91650391 1335.81396484 C-550.24172323 1332.71705297 -553.63729071 1329.77871008 -557.1875 1326.9375 C-561.56252655 1323.42856313 -565.67015659 1319.71650773 -569.75 1315.875 C-574.62661602 1311.28419298 -579.59471136 1306.91459833 -584.859375 1302.765625 C-585.81328125 1301.97671875 -586.7671875 1301.1878125 -587.75 1300.375 C-588.95113165 1299.53519022 -588.95113165 1299.53519022 -590.1765286 1298.67841459 C-594.15501631 1295.62616319 -597.21881074 1293.16354598 -598.6777267 1288.25128876 C-599.02185339 1284.47962786 -599.05696164 1280.77286546 -598.98047829 1276.99280453 C-598.98788315 1275.53267352 -598.99967814 1274.07255941 -599.01544327 1272.61249474 C-599.04607079 1268.59951197 -599.01444752 1264.58907104 -598.97266193 1260.5762782 C-598.93826633 1256.211411 -598.9620376 1251.8467971 -598.97843683 1247.48187882 C-598.99916495 1239.83197991 -598.98275452 1232.18285901 -598.94205475 1224.53305054 C-598.88170471 1213.15823793 -598.87869647 1201.78391588 -598.88747464 1190.40897236 C-598.90061472 1171.274798 -598.86719592 1152.14096893 -598.80730057 1133.00689507 C-598.74814322 1114.06004567 -598.70964377 1095.11334007 -598.69877243 1076.166399 C-598.69808503 1074.9886229 -598.69739764 1073.81084679 -598.69668941 1072.5973805 C-598.69330611 1066.61612308 -598.69029226 1060.63486554 -598.68742065 1054.65360785 C-598.66641294 1012.28126241 -598.59902943 969.90910484 -598.50439453 927.53686523 C-598.41256045 886.3711853 -598.34171934 845.20555676 -598.29931641 804.03979492 C-598.29800114 802.77103113 -598.29668588 801.50226734 -598.29533076 800.19505617 C-598.28214564 787.45368319 -598.26938749 774.71230981 -598.25694217 761.97093609 C-598.2315796 736.01496885 -598.20336708 710.05900496 -598.1734314 684.1030426 C-598.1720585 682.90961263 -598.1706856 681.71618265 -598.16927109 680.48658813 C-598.09797438 618.73004572 -597.9843645 556.97359022 -597.86108398 495.21713257 C-597.85934994 494.34833224 -597.8576159 493.47953191 -597.85582931 492.5844043 C-597.8216834 475.51460046 -597.78566265 458.44480082 -597.75 441.375 C-563.76 441.375 -529.77 441.375 -494.75 441.375 C-494.09 437.085 -493.43 432.795 -492.75 428.375 C-492.19950374 425.72790682 -491.61260504 423.08783948 -490.97265625 420.4609375 C-490.80593414 419.77574539 -490.63921204 419.09055328 -490.46743774 418.38459778 C-489.92431017 416.17084536 -489.37016999 413.96013156 -488.8125 411.75 C-488.61814362 410.97621002 -488.42378723 410.20242004 -488.22354126 409.40518188 C-479.27046185 373.95362426 -467.38381458 339.4535935 -451.75 306.375 C-451.30188965 305.41464844 -450.8537793 304.45429688 -450.39208984 303.46484375 C-432.82331636 265.8421031 -411.77107285 229.82962945 -385.75 197.375 C-385.25967285 196.76140625 -384.7693457 196.1478125 -384.26416016 195.515625 C-368.91940657 176.34529651 -352.71000695 158.26574652 -335.375 140.875 C-334.44768066 139.94300781 -333.52036133 139.01101563 -332.56494141 138.05078125 C-327.4538435 132.9516402 -322.25650363 128.04372091 -316.75 123.375 C-315.70569093 122.47400265 -314.66141781 121.57296363 -313.6171875 120.671875 C-264.47415993 78.84256172 -208.86888806 45.38606978 -147.75 24.375 C-146.19321533 23.83818604 -146.19321533 23.83818604 -144.60498047 23.29052734 C-118.85596411 14.51070725 -92.65363629 8.344781 -65.75 4.375 C-64.47979004 4.17745117 -63.20958008 3.97990234 -61.90087891 3.77636719 C-41.28241117 0.65692091 -20.84250961 0.00348473 0 0 Z " fill="#000000" transform="translate(996.75,157.625)"/>
<path d="M0 0 C0.33 0 0.66 0 1 0 C1.27426869 63.85452396 1.52865539 127.70911774 1.67749023 191.56407166 C1.67969915 192.50934443 1.68190806 193.4546172 1.68418391 194.4285346 C1.73207192 214.9725177 1.77639462 235.51650703 1.81704527 256.06050569 C1.83700242 266.13547197 1.85774732 276.21043657 1.87890625 286.28540039 C1.88099839 287.28797329 1.88309054 288.2905462 1.88524608 289.3235001 C1.95341167 321.81210785 2.07358004 354.30026997 2.22075553 386.78860782 C2.37173954 420.17835373 2.47018137 453.5678531 2.50263984 486.95793461 C2.50725023 491.67546796 2.51246041 496.39300046 2.51803589 501.11053276 C2.51965404 502.50323143 2.51965404 502.50323143 2.52130488 503.92406542 C2.54020286 518.86201976 2.61438432 533.79921111 2.70931254 548.73685446 C2.80359695 563.75925262 2.83946637 578.78089544 2.81602204 593.80357904 C2.80386398 602.72642447 2.8361777 611.64650261 2.93276069 620.56884753 C2.99292807 626.53554439 2.99450874 632.50043741 2.94930902 638.46726067 C2.92521876 641.86564885 2.93471171 645.25460897 2.99813092 648.65310992 C3.36951829 669.78705843 3.36951829 669.78705843 -2.45558357 676.79531944 C-5.7032073 680.09432635 -9.20936147 682.87623178 -12.99152863 685.53470164 C-16.13408648 687.827383 -18.88596494 690.49821305 -21.6875 693.1875 C-22.74139802 694.16242213 -23.79712871 695.13537054 -24.85546875 696.10546875 C-28.07346273 699.06690513 -31.28699604 702.03315167 -34.5 705 C-35.58331462 706.00002027 -36.66664794 707.00002029 -37.75 708 C-38.28625 708.495 -38.8225 708.99 -39.375 709.5 C-57.25 726 -57.25 726 -58.87451172 727.49951172 C-59.95952256 728.50108526 -61.04448338 729.502713 -62.12939453 730.50439453 C-64.81165757 732.98076272 -67.49473934 735.45623064 -70.1796875 737.9296875 C-75.99300041 743.28712413 -81.78773321 748.66351874 -87.5625 754.0625 C-93.02745856 759.17110874 -98.52199183 764.24500725 -104.04296875 769.29296875 C-107.18333159 772.16490659 -110.31138814 775.05006534 -113.4375 777.9375 C-113.97777832 778.43652832 -114.51805664 778.93555664 -115.07470703 779.44970703 C-116.16948306 780.46104672 -117.2642095 781.47244008 -118.35888672 782.48388672 C-120.53090442 784.49046659 -122.70376073 786.49613692 -124.87670898 788.50170898 C-125.96093108 789.50244158 -127.04507794 790.50325569 -128.12915039 791.50415039 C-130.81148255 793.98061326 -133.49465476 796.45615272 -136.1796875 798.9296875 C-141.99300041 804.28712413 -147.78773321 809.66351874 -153.5625 815.0625 C-159.02745856 820.17110874 -164.52199183 825.24500725 -170.04296875 830.29296875 C-173.18333159 833.16490659 -176.31138814 836.05006534 -179.4375 838.9375 C-179.97777832 839.43652832 -180.51805664 839.93555664 -181.07470703 840.44970703 C-182.16948306 841.46104672 -183.2642095 842.47244008 -184.35888672 843.48388672 C-186.53090442 845.49046659 -188.70376073 847.49613692 -190.87670898 849.50170898 C-191.96093108 850.50244158 -193.04507794 851.50325569 -194.12915039 852.50415039 C-196.81148255 854.98061326 -199.49465476 857.45615272 -202.1796875 859.9296875 C-207.99300041 865.28712413 -213.78773321 870.66351874 -219.5625 876.0625 C-225.02745856 881.17110874 -230.52199183 886.24500725 -236.04296875 891.29296875 C-239.18333159 894.16490659 -242.31138814 897.05006534 -245.4375 899.9375 C-245.97777832 900.43652832 -246.51805664 900.93555664 -247.07470703 901.44970703 C-248.16948306 902.46104672 -249.2642095 903.47244008 -250.35888672 904.48388672 C-252.53090442 906.49046659 -254.70376073 908.49613692 -256.87670898 910.50170898 C-257.96093108 911.50244158 -259.04507794 912.50325569 -260.12915039 913.50415039 C-262.81148255 915.98061326 -265.49465476 918.45615272 -268.1796875 920.9296875 C-273.99300041 926.28712413 -279.78773321 931.66351874 -285.5625 937.0625 C-291.01939812 942.16357389 -296.50478589 947.23109318 -302.01953125 952.26953125 C-304.14955361 954.21712279 -306.27047458 956.17416494 -308.38671875 958.13671875 C-309.24402588 958.93118408 -309.24402588 958.93118408 -310.11865234 959.74169922 C-311.20460716 960.74876657 -312.28965179 961.75681682 -313.37353516 962.76611328 C-314.36125311 963.68153599 -315.35830235 964.58702896 -316.36590505 965.4805178 C-318.00871807 966.9520138 -318.00871807 966.9520138 -319.34439731 968.56080729 C-323.00028973 972.43544907 -325.94990108 973.44117795 -331.24983597 973.76342678 C-333.81821374 973.80038552 -336.37388442 973.80513017 -338.94122314 973.78208923 C-340.37074889 973.79115671 -341.80026008 973.80282667 -343.22974563 973.81686693 C-347.14929149 973.84769929 -351.06801394 973.84116475 -354.98762727 973.82832515 C-359.21824652 973.82092151 -363.44866781 973.84796828 -367.67921448 973.87043762 C-375.96453101 973.90868226 -384.24955588 973.91405921 -392.53494582 973.90703683 C-399.27098801 973.90168647 -406.00694171 973.90693798 -412.74297333 973.91971016 C-413.7018993 973.92149573 -414.66082527 973.92328129 -415.6488096 973.92512097 C-417.59693483 973.92875626 -419.54506005 973.93239866 -421.49318525 973.9360481 C-439.76289583 973.96867706 -458.03244029 973.9621866 -476.30216023 973.94389356 C-493.00723127 973.92839125 -509.71177721 973.96213746 -526.41674438 974.01918822 C-543.57630712 974.07734133 -560.73562154 974.10208802 -577.89528346 974.09081846 C-587.52634503 974.08508423 -597.15695987 974.09252577 -606.78794098 974.13496208 C-614.9885294 974.17073033 -623.18839628 974.17489039 -631.38899478 974.13859158 C-635.57102552 974.12094067 -639.75173723 974.11757635 -643.93367958 974.15359879 C-647.76766143 974.18623919 -651.59922684 974.17680437 -655.4330965 974.13481373 C-657.46566973 974.12315399 -659.49835109 974.15547059 -661.53066945 974.18970436 C-671.2880557 974.01768517 -676.18802859 970.80427095 -683 964 C-684.24643669 962.86067275 -685.49557575 961.72427679 -686.75 960.59375 C-687.83576161 959.56505694 -688.91912008 958.5338212 -690 957.5 C-694.90932639 952.87001703 -699.95158165 948.52700147 -705.22265625 944.30859375 C-709.00817282 941.16198293 -712.57505162 937.80312334 -716.16650391 934.43896484 C-719.49172323 931.34205297 -722.88729071 928.40371008 -726.4375 925.5625 C-731.45841948 921.53553256 -736.12421817 917.20785297 -740.80615234 912.79931641 C-745.12226878 908.75731413 -749.60503631 905.00404583 -754.22265625 901.30859375 C-758.00817282 898.16198293 -761.57505162 894.80312334 -765.16650391 891.43896484 C-768.49172323 888.34205297 -771.88729071 885.40371008 -775.4375 882.5625 C-780.45841948 878.53553256 -785.12421817 874.20785297 -789.80615234 869.79931641 C-794.11880851 865.76055464 -798.59838771 862.01052798 -803.2109375 858.31640625 C-807.63734163 854.64013503 -811.80801112 850.69573628 -816.015625 846.7734375 C-820.63353761 842.46894486 -825.40761607 838.35687595 -830.2109375 834.26171875 C-831.41162041 833.23716908 -832.61213621 832.21242354 -833.8125 831.1875 C-834.41868164 830.67018311 -835.02486328 830.15286621 -835.64941406 829.61987305 C-839.3907082 826.41497771 -843.06115383 823.14790722 -846.6875 819.8125 C-850.14015696 816.64169258 -853.65530966 813.61964969 -857.3125 810.6875 C-862.36836567 806.61251555 -867.08187223 802.24768006 -871.80566406 797.79980469 C-876.12191437 793.75760202 -880.60485366 790.004192 -885.22265625 786.30859375 C-889.00817282 783.16198293 -892.57505162 779.80312334 -896.16650391 776.43896484 C-899.49172323 773.34205297 -902.88729071 770.40371008 -906.4375 767.5625 C-911.45841948 763.53553256 -916.12421817 759.20785297 -920.80615234 754.79931641 C-925.11880851 750.76055464 -929.59838771 747.01052798 -934.2109375 743.31640625 C-938.63734163 739.64013503 -942.80801112 735.69573628 -947.015625 731.7734375 C-951.63353761 727.46894486 -956.40761607 723.35687595 -961.2109375 719.26171875 C-962.41162041 718.23716908 -963.61213621 717.21242354 -964.8125 716.1875 C-965.41868164 715.67018311 -966.02486328 715.15286621 -966.64941406 714.61987305 C-970.3907082 711.41497771 -974.06115383 708.14790722 -977.6875 704.8125 C-981.14015696 701.64169258 -984.65530966 698.61964969 -988.3125 695.6875 C-993.51246173 691.4990582 -998.38362618 687.01580087 -1003.22973633 682.4284668 C-1003.79200928 681.89777588 -1004.35428223 681.36708496 -1004.93359375 680.8203125 C-1005.42915771 680.34867676 -1005.92472168 679.87704102 -1006.43530273 679.39111328 C-1008.00858603 677.91535597 -1008.00858603 677.91535597 -1010.06674396 676.7012396 C-1012 675 -1012 675 -1012.49868466 672.8871065 C-1012.49774878 671.6505701 -1012.49774878 671.6505701 -1012.49679399 670.38905317 C-1012.50578316 669.43482252 -1012.51477233 668.48059187 -1012.5240339 667.49744514 C-1012.51352585 666.44485384 -1012.5030178 665.39226255 -1012.49219131 664.30777454 C-1012.49680669 663.18829801 -1012.50142207 662.06882147 -1012.50617731 660.9154214 C-1012.51685259 657.12508787 -1012.49874786 653.33541992 -1012.48101807 649.54512024 C-1012.48053571 646.81602944 -1012.4860905 644.08695854 -1012.49137473 641.35787362 C-1012.49968408 635.40426847 -1012.49307032 629.4508229 -1012.4768219 623.49723625 C-1012.45272795 614.64443994 -1012.45147436 605.79174472 -1012.45498985 596.9389216 C-1012.46025149 582.0486855 -1012.446857 567.15852029 -1012.42292023 552.26830482 C-1012.39927204 537.51988691 -1012.38386048 522.77149849 -1012.37950897 508.02306175 C-1012.37923401 507.10689275 -1012.37895906 506.19072375 -1012.37867576 505.24679205 C-1012.37732248 500.59424926 -1012.37611693 495.94170645 -1012.37496826 491.28916361 C-1012.36656111 458.31409352 -1012.33959635 425.33906202 -1012.30175781 392.36401367 C-1012.26503493 360.32430222 -1012.23669321 328.28460132 -1012.21972656 296.24487305 C-1012.21920046 295.25769667 -1012.21867435 294.27052029 -1012.21813231 293.25342947 C-1012.21285834 283.34002106 -1012.20775507 273.42661257 -1012.20277687 263.513204 C-1012.19263134 243.31749249 -1012.18134633 223.12178167 -1012.16937256 202.92607117 C-1012.1688234 201.99745486 -1012.16827424 201.06883855 -1012.16770844 200.11208235 C-1012.13089048 138.07470551 -1012.0675079 76.0373501 -1012 14 C-1010.72832614 14.94257391 -1009.4582012 15.88723776 -1008.1887207 16.83276367 C-1007.48125198 17.35859543 -1006.77378326 17.88442719 -1006.0448761 18.42619324 C-1003.25632336 20.57235904 -1000.74726884 22.89593501 -998.1875 25.3125 C-994.41665665 28.83486072 -990.59136882 32.20735736 -986.5625 35.4375 C-981.14091657 39.80140459 -976.07157883 44.4842153 -970.984375 49.2265625 C-966.36646239 53.53105514 -961.59238393 57.64312405 -956.7890625 61.73828125 C-955.58837959 62.76283092 -954.38786379 63.78757646 -953.1875 64.8125 C-952.58131836 65.32981689 -951.97513672 65.84713379 -951.35058594 66.38012695 C-947.6092918 69.58502229 -943.93884617 72.85209278 -940.3125 76.1875 C-936.83863691 79.37736844 -933.30089975 82.42048894 -929.625 85.375 C-924.82779065 89.24283546 -920.32795793 93.35109495 -915.83422852 97.56030273 C-912.50880245 100.65750846 -909.11298325 103.59607067 -905.5625 106.4375 C-900.54158052 110.46446744 -895.87578183 114.79214703 -891.19384766 119.20068359 C-886.87773122 123.24268587 -882.39496369 126.99595417 -877.77734375 130.69140625 C-873.98945127 133.83999198 -870.42017083 137.20087306 -866.8269043 140.56762695 C-863.56698417 143.6044164 -860.24185225 146.47768094 -856.75 149.25 C-851.75355686 153.25299831 -847.13411696 157.58488955 -842.5 162 C-836.98786727 167.25094579 -831.43348791 172.25799679 -825.47265625 176.99609375 C-822.89798396 179.0826765 -820.44798614 181.26654786 -818 183.5 C-814.66805242 186.53856855 -811.26910617 189.43059915 -807.75 192.25 C-802.67657078 196.3488722 -797.93930819 200.73239988 -793.19458008 205.19995117 C-788.87826283 209.24225403 -784.39523766 212.99573491 -779.77734375 216.69140625 C-775.99182718 219.83801707 -772.42494838 223.19687666 -768.83349609 226.56103516 C-765.50827677 229.65794703 -762.11270929 232.59628992 -758.5625 235.4375 C-753.54158052 239.46446744 -748.87578183 243.79214703 -744.19384766 248.20068359 C-739.87773122 252.24268587 -735.39496369 255.99595417 -730.77734375 259.69140625 C-726.99182718 262.83801707 -723.42494838 266.19687666 -719.83349609 269.56103516 C-716.50827677 272.65794703 -713.11270929 275.59628992 -709.5625 278.4375 C-704.54077775 282.46511129 -699.87417239 286.79345856 -695.19165039 291.20288086 C-690.90600489 295.21660792 -686.45360719 298.93769395 -681.8671875 302.60546875 C-677.71503934 306.07313472 -673.78671426 309.76782883 -669.85742188 313.484375 C-669.29861328 314.01160156 -668.73980469 314.53882813 -668.1640625 315.08203125 C-667.67373535 315.54843018 -667.1834082 316.0148291 -666.67822266 316.49536133 C-666.12440918 316.99189209 -665.5705957 317.48842285 -665 318 C-664.39569751 318.67972429 -663.79139502 319.35944859 -663.16878033 320.05977058 C-658.2080338 323.09721254 -653.33028176 322.57143158 -647.62129211 322.54830933 C-646.35000731 322.55878268 -645.07872251 322.56925604 -643.76891392 322.58004677 C-640.24214083 322.60839719 -636.7157203 322.61173359 -633.18884957 322.61085296 C-629.38427389 322.61415035 -625.57984328 322.64028536 -621.77534485 322.66323853 C-613.45705508 322.70893043 -605.13886739 322.72477898 -596.82046914 322.73489141 C-591.62503494 322.74140682 -586.42963034 322.75445271 -581.23421288 322.7688942 C-566.84555802 322.80802605 -552.45693068 322.84083419 -538.06821918 322.84664726 C-537.1475157 322.8470224 -536.22681222 322.84739754 -535.27820862 322.84778405 C-533.41176522 322.84851654 -531.54532181 322.84924394 -529.6788784 322.84996627 C-528.75239003 322.85033189 -527.82590167 322.85069752 -526.87133789 322.85107422 C-525.94371669 322.85143532 -525.0160955 322.85179642 -524.06036457 322.85216846 C-509.03250666 322.85925042 -494.00522218 322.91328485 -478.97756312 322.98807 C-463.54361645 323.06426141 -448.10995419 323.1029624 -432.67581528 323.10356629 C-424.01212421 323.10473494 -415.34911706 323.12168423 -406.68560219 323.17956161 C-399.30762106 323.22862458 -391.93057315 323.24313365 -384.55247293 323.21306656 C-380.78959623 323.19874017 -377.02856137 323.20037848 -373.26589203 323.24588776 C-369.18045495 323.29482611 -365.09919427 323.26576783 -361.0136261 323.22946167 C-359.24147082 323.26906157 -359.24147082 323.26906157 -357.43351442 323.30946147 C-350.6459166 323.17183771 -347.31110983 322.00661023 -342.44543743 317.15265083 C-340.95440445 315.44309889 -339.47190905 313.72604487 -338 312 C-336.64400404 310.74927061 -335.26813637 309.51910798 -333.859375 308.328125 C-329.87904773 304.91470492 -326.0595916 301.35199344 -322.25 297.75 C-317.36712338 293.14922234 -312.46390841 288.57572931 -307.5 284.0625 C-303.49659876 280.41074887 -299.63552611 276.66240734 -295.83203125 272.8046875 C-293.4686257 270.47655666 -290.97148632 268.33420717 -288.45703125 266.171875 C-285.11857436 263.22087018 -281.87506591 260.17271622 -278.625 257.125 C-273.63650685 252.44924394 -268.6130108 247.82289045 -263.515625 243.265625 C-259.96654367 240.06924741 -256.46261242 236.82493938 -252.95654297 233.58154297 C-249.31318623 230.21130463 -245.66101922 226.85104041 -242 223.5 C-236.19884739 218.18808972 -230.4183081 212.85405599 -224.64111328 207.51611328 C-221.92822414 205.00985896 -219.21405141 202.50499554 -216.5 200 C-215.41666043 199.00000676 -214.33332709 198.00000676 -213.25 197 C-115.75 107 -115.75 107 -114.12548828 105.50048828 C-113.04047744 104.49891474 -111.95551662 103.497287 -110.87060547 102.49560547 C-108.18834243 100.01923728 -105.50526066 97.54376936 -102.8203125 95.0703125 C-97.00699959 89.71287587 -91.21226679 84.33648126 -85.4375 78.9375 C-79.97254144 73.82889126 -74.47800817 68.75499275 -68.95703125 63.70703125 C-65.81666841 60.83509341 -62.68861186 57.94993466 -59.5625 55.0625 C-58.75208252 54.31395752 -58.75208252 54.31395752 -57.92529297 53.55029297 C-56.83051694 52.53895328 -55.7357905 51.52755992 -54.64111328 50.51611328 C-51.92822414 48.00985896 -49.21405141 45.50499554 -46.5 43 C-45.41666043 42.00000676 -44.33332709 41.00000676 -43.25 40 C-23.75 22 -23.75 22 -22.12207031 20.49731445 C-21.0484776 19.50629336 -19.97490952 18.51524558 -18.90136719 17.52416992 C-16.04421326 14.88656298 -13.18652126 12.24954187 -10.328125 9.61328125 C-9.4299707 8.78473633 -9.4299707 8.78473633 -8.51367188 7.93945312 C-7.35887989 6.8741799 -6.20393772 5.80906945 -5.04882812 4.74414062 C-2.49235449 2.40571813 -2.49235449 2.40571813 0 0 Z " fill="#8B51FE" transform="translate(1507,730)"/>
<path d="M0 0 C259.38 0 518.76 0 786 0 C784.35 1.65 782.7 3.3 781 5 C780.05498653 5.95473737 779.11078122 6.91027656 778.16796875 7.8671875 C777.17450318 8.86981546 776.18101335 9.87241938 775.1875 10.875 C774.70474609 11.36613281 774.22199219 11.85726562 773.72460938 12.36328125 C770.29915927 15.81111992 766.7201763 19.02516402 763.04614258 22.20556641 C759.7029031 25.13753278 756.48090927 28.19544603 753.25 31.25 C747.51185663 36.65236904 741.74064591 42.01259914 735.921875 47.328125 C731.14240413 51.69865719 726.38903803 56.0974101 721.63232422 60.49267578 C720.02804639 61.97410134 718.42245634 63.45408992 716.81640625 64.93359375 C711.00420142 70.28952001 705.21092348 75.66477464 699.4375 81.0625 C693.97254144 86.17110874 688.47800817 91.24500725 682.95703125 96.29296875 C679.81666841 99.16490659 676.68861186 102.05006534 673.5625 104.9375 C673.02222168 105.43652832 672.48194336 105.93555664 671.92529297 106.44970703 C670.83051694 107.46104672 669.7357905 108.47244008 668.64111328 109.48388672 C666.46909558 111.49046659 664.29623927 113.49613692 662.12329102 115.50170898 C661.03906892 116.50244158 659.95492206 117.50325569 658.87084961 118.50415039 C656.18851745 120.98061326 653.50534524 123.45615272 650.8203125 125.9296875 C645.00699959 131.28712413 639.21226679 136.66351874 633.4375 142.0625 C627.97254144 147.17110874 622.47800817 152.24500725 616.95703125 157.29296875 C613.81666841 160.16490659 610.68861186 163.05006534 607.5625 165.9375 C607.02222168 166.43652832 606.48194336 166.93555664 605.92529297 167.44970703 C604.83051694 168.46104672 603.7357905 169.47244008 602.64111328 170.48388672 C599.92822414 172.99014104 597.21405141 175.49500446 594.5 178 C593.41666043 178.99999324 592.33332709 179.99999324 591.25 181 C584.75 187 584.75 187 583.12548828 188.49951172 C582.04047744 189.50108526 580.95551662 190.502713 579.87060547 191.50439453 C577.18834243 193.98076272 574.50526066 196.45623064 571.8203125 198.9296875 C566.0069992 204.28712449 560.21231464 209.66356956 554.4375 215.0625 C540.21613537 228.35441114 540.21613537 228.35441114 536.68782043 231.38341141 C534.86943319 233.04558285 534.86943319 233.04558285 533.12211609 235.42429733 C528.0989516 241.19139162 523.98610981 243.55292784 516.28840256 244.15814447 C510.90871354 244.3616753 505.54259306 244.34440016 500.16015625 244.29394531 C497.7330361 244.30750849 495.30593655 244.32532086 492.87887573 244.3470459 C486.98943059 244.38780553 481.10115672 244.38198827 475.21174502 244.35291949 C470.42223599 244.33026536 465.63308371 244.32730261 460.84353638 244.33815765 C460.15991313 244.33968998 459.47628988 244.34122231 458.77195078 244.34280108 C457.3828546 244.34599858 455.99375851 244.34924072 454.60466254 244.35252699 C441.60199549 244.3809913 428.60003531 244.34833766 415.59748423 244.29452333 C404.45884149 244.24984921 393.32124113 244.25761094 382.18261719 244.30371094 C369.22416136 244.35731824 356.26632388 244.37824521 343.30777264 244.3475883 C341.92400306 244.34440306 340.54023339 244.34125935 339.15646362 244.33815765 C338.47575697 244.3366149 337.79505033 244.33507214 337.0937162 244.33348264 C332.31412605 244.32487557 327.53493061 244.33936253 322.75540161 244.36295319 C316.313215 244.3940537 309.8725282 244.37167419 303.43051529 244.31401062 C301.07115049 244.30082607 298.71161961 244.30452126 296.35232162 244.32663727 C276.32459899 244.49701994 276.32459899 244.49701994 269.34594727 238.19256592 C267.87541316 236.48026521 266.42556315 234.74991828 265 233 C263.24113615 231.50226721 261.45234042 230.03837629 259.625 228.625 C254.82779065 224.75716454 250.32795793 220.64890505 245.83422852 216.43969727 C242.50880245 213.34249154 239.11298325 210.40392933 235.5625 207.5625 C230.54158052 203.53553256 225.87578183 199.20785297 221.19384766 194.79931641 C216.87773122 190.75731413 212.39496369 187.00404583 207.77734375 183.30859375 C203.99182718 180.16198293 200.42494838 176.80312334 196.83349609 173.43896484 C193.50827677 170.34205297 190.11270929 167.40371008 186.5625 164.5625 C181.54158052 160.53553256 176.87578183 156.20785297 172.19384766 151.79931641 C167.87773122 147.75731413 163.39496369 144.00404583 158.77734375 140.30859375 C154.99182718 137.16198293 151.42494838 133.80312334 147.83349609 130.43896484 C144.50827677 127.34205297 141.11270929 124.40371008 137.5625 121.5625 C132.54158052 117.53553256 127.87578183 113.20785297 123.19384766 108.79931641 C118.87773122 104.75731413 114.39496369 101.00404583 109.77734375 97.30859375 C105.99182718 94.16198293 102.42494838 90.80312334 98.83349609 87.43896484 C95.50827677 84.34205297 92.11270929 81.40371008 88.5625 78.5625 C83.54158052 74.53553256 78.87578183 70.20785297 74.19384766 65.79931641 C69.87773122 61.75731413 65.39496369 58.00404583 60.77734375 54.30859375 C56.99182718 51.16198293 53.42494838 47.80312334 49.83349609 44.43896484 C46.50827677 41.34205297 43.11270929 38.40371008 39.5625 35.5625 C35.18747117 32.0535613 31.07986092 28.34149198 27 24.5 C22.01142532 19.80415342 16.90043817 15.36509577 11.5546875 11.07421875 C7.59056364 7.85564112 3.67041938 4.55260345 0 1 C0 0.67 0 0.34 0 0 Z " fill="#8B51FE" transform="translate(602,709)"/>
<path d="M0 0 C0.9182959 0.17660156 1.8365918 0.35320312 2.78271484 0.53515625 C17.43913079 3.43369667 31.18502495 8.37650387 45 14 C45.83724609 14.3393457 46.67449219 14.67869141 47.53710938 15.02832031 C58.95746455 19.71899035 69.54882537 25.44128565 80 32 C81.06863281 32.66902344 82.13726563 33.33804688 83.23828125 34.02734375 C104.90859555 48.06281884 125.06452963 65.6836443 141 86 C141.88157781 87.09214363 142.76444681 88.18324596 143.6484375 89.2734375 C156.75335866 105.5344451 167.04388336 123.10126427 176.5 141.6875 C176.82629395 142.32228271 177.15258789 142.95706543 177.48876953 143.61108398 C179.56850033 147.77773997 180.68692234 151.40422819 182 156 C34.16 156 -113.68 156 -266 156 C-262.61643836 145.84931507 -262.61643836 145.84931507 -260.90625 142.37890625 C-260.52178711 141.59829834 -260.13732422 140.81769043 -259.74121094 140.01342773 C-259.12681152 138.80021851 -259.12681152 138.80021851 -258.5 137.5625 C-258.06204102 136.69633057 -257.62408203 135.83016113 -257.17285156 134.93774414 C-239.43076723 100.38223319 -213.55899977 67.88721596 -182 45 C-180.85115255 44.14508186 -179.70272016 43.28960571 -178.5546875 42.43359375 C-165.52490191 32.82145684 -151.66669226 24.83739429 -137 18 C-136.20319824 17.62842773 -135.40639648 17.25685547 -134.58544922 16.87402344 C-122.37886508 11.25545659 -110.15863013 6.96059852 -97.16015625 3.57275391 C-94.5462942 2.87970233 -91.96428671 2.0916835 -89.375 1.3125 C-60.39845736 -6.51024074 -29.18738546 -5.75834748 0 0 Z " fill="#8B51FE" transform="translate(1041,443)"/>
<path d="M0 0 C14.96962818 11.50273576 23.29592004 26.09640072 28.046875 44.01953125 C28.22573242 44.65463623 28.40458984 45.28974121 28.58886719 45.9440918 C32.64711073 64.33381905 27.54031451 84.24224686 18.046875 100.01953125 C15.58810401 103.56725692 12.93661723 106.81617359 10.046875 110.01953125 C9.44359375 110.715625 8.8403125 111.41171875 8.21875 112.12890625 C1.45377875 119.46236248 -7.38082388 125.173712 -16.953125 128.01953125 C-9.59067068 147.1140266 -1.88731222 166.06612085 5.8477478 185.01199341 C12.92823716 202.35468346 19.97702822 219.70965404 26.984375 237.08203125 C27.42216278 238.16733124 27.85995056 239.25263123 28.31100464 240.37081909 C28.96227829 241.98538498 28.96227829 241.98538498 29.62670898 243.63256836 C30.48550471 245.76155987 31.3443099 247.89054756 32.203125 250.01953125 C32.61824844 251.04869156 33.03337189 252.07785187 33.46107483 253.13819885 C36.98489331 261.87176735 40.52442545 270.59890468 44.06787109 279.32452393 C46.73234403 285.8875807 49.39116535 292.45292404 52.046875 299.01953125 C52.37059082 299.81991821 52.69430664 300.62030518 53.02783203 301.44494629 C55.03417233 306.40775641 57.03590055 311.37239197 59.03201294 316.33932495 C59.66158159 317.90452134 60.29231927 319.46924807 60.92428589 321.03347778 C61.79006631 323.1772583 62.65147637 325.32274239 63.51171875 327.46875 C64.24829712 329.29925903 64.24829712 329.29925903 64.99975586 331.16674805 C66.046875 334.01953125 66.046875 334.01953125 66.046875 336.01953125 C-6.883125 336.01953125 -79.813125 336.01953125 -154.953125 336.01953125 C-153.82822322 329.27012059 -153.82822322 329.27012059 -152.33691406 325.66552734 C-152.00353531 324.85076935 -151.67015656 324.03601135 -151.32667542 323.19656372 C-150.96106003 322.32087738 -150.59544464 321.44519104 -150.21875 320.54296875 C-149.83343613 319.60548798 -149.44812225 318.6680072 -149.0511322 317.70211792 C-148.2138227 315.66671267 -147.37370061 313.63246268 -146.53109741 311.59924316 C-144.716892 307.22113588 -142.91636127 302.83744859 -141.11515808 298.45397949 C-140.16840258 296.15007749 -139.22097318 293.84645231 -138.27290344 291.54309082 C-133.17127481 279.14175616 -128.15307569 266.70711374 -123.140625 254.26953125 C-121.38183478 249.9087233 -119.62253617 245.54812049 -117.86328125 241.1875 C-117.44163696 240.14215591 -117.01999268 239.09681183 -116.58557129 238.01979065 C-112.7598703 228.53643195 -108.9220456 219.05801765 -105.078125 209.58203125 C-104.78026093 208.84772888 -104.48239685 208.11342651 -104.17550659 207.35687256 C-102.99373809 204.44371703 -101.81187974 201.53059799 -100.62983704 198.61755371 C-98.44697275 193.23785679 -96.26608707 187.85736009 -94.0859375 182.4765625 C-86.7275187 164.31636595 -79.35568975 146.16178658 -71.953125 128.01953125 C-73.51740234 127.62314453 -73.51740234 127.62314453 -75.11328125 127.21875 C-89.56686031 123.07202289 -101.73897409 109.86471755 -109.03027344 97.13964844 C-115.58863061 84.72765593 -118.47480859 73.21084393 -118.390625 59.14453125 C-118.4205957 57.37916016 -118.4205957 57.37916016 -118.45117188 55.578125 C-118.44100835 37.10083383 -110.48392306 20.54714154 -97.58984375 7.59765625 C-96.71972656 6.746875 -95.84960938 5.89609375 -94.953125 5.01953125 C-94.32019531 4.354375 -93.68726563 3.68921875 -93.03515625 3.00390625 C-86.82920085 -3.07875202 -78.80243004 -6.50654112 -70.953125 -9.98046875 C-69.94765625 -10.44066406 -68.9421875 -10.90085937 -67.90625 -11.375 C-45.32440047 -20.01103164 -19.30952426 -12.94964127 0 0 Z " fill="#000000" transform="translate(1047.953125,1214.98046875)"/>
<path d="M0 0 C0.38925657 59.22036266 0.68877213 118.4407049 0.8681106 177.66207495 C0.88931438 184.65639206 0.91135592 191.65070642 0.93383789 198.64501953 C0.93606079 199.34101892 0.9382837 200.03701832 0.94057396 200.7541086 C1.01295175 223.2930061 1.14059351 245.83117665 1.29705275 268.36963417 C1.46216829 292.19847121 1.56397618 316.02679544 1.59950441 339.85619402 C1.62281137 354.12467523 1.6963706 368.39106895 1.83457994 382.65890741 C1.92456367 392.44792608 1.95157538 402.23586841 1.92952342 412.02527046 C1.91865129 417.67107628 1.93510018 423.31324001 2.02649307 428.958395 C2.60288086 466.39910518 2.60288086 466.39910518 -5.82598835 475.39310026 C-8.65952631 477.8161898 -11.55357007 479.80920405 -14.78997815 481.6540823 C-18.58371744 483.96449423 -21.7491434 486.99421921 -25 490 C-25.58356201 490.53294662 -26.16712402 491.06589324 -26.76836973 491.61498976 C-28.3114912 493.02700817 -29.84415867 494.44968431 -31.375 495.875 C-36.03833223 500.1986416 -40.73696176 504.47818453 -45.47265625 508.72265625 C-48.33082203 511.29809775 -51.16710261 513.89685764 -54 516.5 C-58.45061978 520.58920545 -62.93078117 524.64369115 -67.4296875 528.6796875 C-69.81973767 530.83727078 -72.1949444 533.00960146 -74.56396484 535.19018555 C-76.09612787 536.59846239 -77.63370797 538.00063104 -79.171875 539.40234375 C-80.90993181 540.99876334 -82.63257591 542.6124099 -84.328125 544.25390625 C-85.00359375 544.89199219 -85.6790625 545.53007813 -86.375 546.1875 C-86.93960937 546.73792969 -87.50421875 547.28835938 -88.0859375 547.85546875 C-90.74121902 549.44321872 -92.95918872 549.07551769 -96 549 C-96.22884174 490.31425946 -96.40509299 431.62853964 -96.51065329 372.94244442 C-96.52312654 366.01550253 -96.53609209 359.08856159 -96.54931641 352.16162109 C-96.550624 351.47231136 -96.55193159 350.78300163 -96.5532788 350.07280372 C-96.59588387 327.73473007 -96.67099035 305.39690956 -96.76297221 283.05898924 C-96.86000847 259.45069056 -96.91996644 235.84261688 -96.94088495 212.23411024 C-96.95461268 198.09211366 -96.99798384 183.95084387 -97.07916467 169.80907099 C-97.1319865 160.11415649 -97.14800967 150.41961822 -97.13501377 140.72457023 C-97.12860248 135.12904647 -97.13849287 129.53479342 -97.19205475 123.93949509 C-97.24075075 118.81509234 -97.2431614 113.69281347 -97.20898895 108.56831257 C-97.20476638 106.71615256 -97.21743196 104.86385958 -97.24883182 103.01196094 C-97.46933507 89.20246113 -97.46933507 89.20246113 -93.8295486 83.74659991 C-91.34408467 81.22323424 -88.84476771 79.10152745 -86 77 C-84.69928922 75.86444363 -83.40558246 74.72070783 -82.125 73.5625 C-81.485625 73.01464844 -80.84625 72.46679688 -80.1875 71.90234375 C-77.45453262 69.52563819 -74.78913795 67.07810466 -72.125 64.625 C-68.43467882 61.22942001 -64.73294409 57.84884695 -61 54.5 C-57.31169568 51.18998331 -53.64929525 47.85290579 -50 44.5 C-45.54664513 40.40833893 -41.06340146 36.35177054 -36.5625 32.3125 C-33.69399573 29.72384981 -30.84525184 27.11412873 -28 24.5 C-23.53559142 20.39870138 -19.04607499 16.32700226 -14.53125 12.28125 C-12.66840746 10.60239191 -10.81492656 8.91574058 -8.96875 7.21875 C-8.46351807 6.7554126 -7.95828613 6.2920752 -7.43774414 5.81469727 C-6.00766838 4.50191332 -4.57994448 3.18656876 -3.15234375 1.87109375 C-1 0 -1 0 0 0 Z " fill="#000000" transform="translate(1427,900)"/>
<path d="M0 0 C3.80125005 1.7749952 6.54953756 4.19035761 9.5625 7.0625 C13.39465791 10.65112328 17.26920432 14.09644611 21.375 17.375 C26.41336194 21.42601724 31.1030476 25.77223557 35.8059082 30.20043945 C40.12209157 34.24254193 44.60494499 37.99588108 49.22265625 41.69140625 C53.00817282 44.83801707 56.57505162 48.19687666 60.16650391 51.56103516 C63.49172323 54.65794703 66.88729071 57.59628992 70.4375 60.4375 C75.53690543 64.52749233 80.30645145 68.90910507 85.05444336 73.39624023 C85.61010986 73.92032471 86.16577637 74.44440918 86.73828125 74.984375 C87.22337158 75.44553711 87.70846191 75.90669922 88.20825195 76.38183594 C90.13002985 78.18752866 90.13002985 78.18752866 93.06584132 80.11953992 C95.73485843 82.35781758 95.97659123 82.88904719 96.74519098 86.53205377 C96.7735202 87.92292441 96.76893726 89.31470397 96.73828697 90.7055254 C96.74867157 91.86396171 96.74867157 91.86396171 96.75926596 93.04580078 C96.77519675 95.64359923 96.74819768 98.2391832 96.7215271 100.83686829 C96.72414276 102.71384825 96.72939478 104.59082609 96.7370621 106.46779221 C96.75050536 111.63308945 96.72644204 116.79764301 96.69639373 121.96284544 C96.67052913 127.52995346 96.67924792 133.09701813 96.68380737 138.66416931 C96.68695642 148.31208071 96.6681009 157.95974901 96.63438034 167.60759926 C96.58565766 181.55680004 96.56999571 195.50588304 96.56245239 209.45515969 C96.54931439 232.08582045 96.50941929 254.71634097 96.45263672 277.34692383 C96.39753514 299.33291958 96.35503104 321.31888068 96.32958984 343.30493164 C96.32880069 343.98257539 96.32801153 344.66021915 96.32719846 345.35839756 C96.31928737 352.16354277 96.31163248 358.96868825 96.3041653 365.77383396 C96.24151326 422.84931345 96.13563056 479.92465017 96 537 C92.29698716 536.34243446 90.30825488 535.7937477 87.5625 533.1875 C83.84185024 529.76169418 80.04263786 526.45969114 76.1875 523.1875 C71.82590103 519.46772227 67.53231369 515.6937613 63.3125 511.8125 C59.85984304 508.64169258 56.34469034 505.61964969 52.6875 502.6875 C47.63163433 498.61251555 42.91812777 494.24768006 38.19433594 489.79980469 C33.88154586 485.76084255 29.40179489 482.01067423 24.7890625 478.31640625 C20.3795619 474.65417396 16.22421292 470.72636125 12.03515625 466.81640625 C8.88124692 463.87545235 5.65456406 461.02526434 2.390625 458.20703125 C1.57158034 457.49611889 0.76688674 456.76688674 0 456 C-0.09877674 453.5758178 -0.13178599 451.18013115 -0.12304783 448.75543118 C-0.12420167 447.98437893 -0.12535552 447.21332669 -0.12654433 446.41890922 C-0.12921821 443.8019925 -0.12468253 441.18513573 -0.12025452 438.56822205 C-0.12069006 436.68644988 -0.12156466 434.80467777 -0.12284368 432.92290598 C-0.12509194 427.72604001 -0.12106287 422.52919443 -0.11606562 417.33233106 C-0.11176602 411.73788601 -0.11320719 406.14344221 -0.1139679 400.54899597 C-0.11449344 390.84763756 -0.11134344 381.14628585 -0.10573006 371.44492912 C-0.09761921 357.41821976 -0.09500026 343.39151365 -0.09374207 329.36480219 C-0.09155089 306.60997995 -0.08489759 283.85516189 -0.07543945 261.1003418 C-0.06625977 238.98999042 -0.05917383 216.87964001 -0.05493164 194.76928711 C-0.05480011 194.08812914 -0.05466859 193.40697117 -0.05453308 192.70517205 C-0.05321459 185.86490131 -0.05193877 179.02463057 -0.05069422 172.18435981 C-0.0402475 114.78957072 -0.02259607 57.39478552 0 0 Z " fill="#000000" transform="translate(589,911)"/>
<path d="M0 0 C0 27.39 0 54.78 0 83 C-6.6 85.31 -13.2 87.62 -20 90 C-24.52825843 91.85800182 -28.98687624 93.73047336 -33.4375 95.75 C-34.57654785 96.26312744 -35.7155957 96.77625488 -36.88916016 97.30493164 C-60.51157112 108.065077 -82.92857199 120.72801275 -103.39892578 136.74853516 C-104.76581622 137.81695242 -106.14533524 138.86918022 -107.52734375 139.91796875 C-128.89759387 156.18718268 -148.32803421 174.94766103 -165 196 C-166.04687004 197.29297276 -167.09374544 198.5859412 -168.140625 199.87890625 C-185.2360034 221.20303879 -199.13773648 244.47816278 -211.04101562 269.03320312 C-211.98660188 270.97252157 -212.95306265 272.90032599 -213.921875 274.828125 C-222.19570919 291.55845705 -228.10805515 309.32416546 -234 327 C-255.12 327 -276.24 327 -298 327 C-296.41903955 318.30471753 -294.53076614 310.12546165 -292.0625 301.6875 C-291.86814362 301.02036987 -291.67378723 300.35323975 -291.47354126 299.66589355 C-284.24996972 275.01198122 -274.92183264 251.25483073 -264 228 C-263.55720703 227.05253906 -263.11441406 226.10507812 -262.65820312 225.12890625 C-252.41019089 203.4000382 -240.10923156 182.44742819 -226 163 C-225.55350098 162.37770508 -225.10700195 161.75541016 -224.64697266 161.11425781 C-216.02304843 149.10007057 -207.17356947 137.26435277 -197.13671875 126.38671875 C-195.03599109 124.04020211 -193.11901556 121.61168171 -191.1875 119.125 C-186.47908013 113.29791299 -181.23149697 108.04447803 -175.9375 102.75 C-175.08631592 101.89809082 -174.23513184 101.04618164 -173.3581543 100.16845703 C-168.94649207 95.79485956 -164.46397692 91.56535857 -159.75366211 87.51513672 C-157.382754 85.46670908 -155.1030054 83.32506227 -152.8125 81.1875 C-146.82113729 75.73181621 -140.49171736 70.83151065 -134 66 C-133.40670898 65.5551123 -132.81341797 65.11022461 -132.20214844 64.65185547 C-117.08556599 53.32849741 -101.51263398 43.17907232 -85 34 C-84.19353027 33.55011719 -83.38706055 33.10023438 -82.55615234 32.63671875 C-23.5490589 0 -23.5490589 0 0 0 Z " fill="#8B51FE" transform="translate(903,272)"/>
<path d="M0 0 C54.33992197 16.30197659 106.28771944 44.23942645 148 83 C149.39177037 84.21301087 150.78745664 85.42154717 152.1875 86.625 C155.34771059 89.37355991 158.29616482 92.27165234 161.2265625 95.26171875 C163.04165603 97.04083025 164.9329289 98.67363763 166.875 100.3125 C170.74017194 103.65295453 174.08730874 107.31081941 177.45703125 111.14453125 C179.30304283 113.21739525 181.16501272 115.24896257 183.07421875 117.26171875 C190.1072561 124.68267699 196.59667367 132.33046094 202.80371094 140.45263672 C204.47084542 142.60902413 206.20635507 144.70734228 207.9375 146.8125 C222.90796091 165.51030016 235.42406643 186.08299191 247 207 C247.4316748 207.77537109 247.86334961 208.55074219 248.30810547 209.34960938 C268.27173445 245.42601504 284.60692283 286.33807556 292 327 C272.53 327 253.06 327 233 327 C230.03 318.09 227.06 309.18 224 300 C222.11028602 295.15731191 220.22811435 290.42472779 218.125 285.6875 C217.62162109 284.53636719 217.11824219 283.38523437 216.59960938 282.19921875 C208.58780816 264.06988633 199.56069864 246.77425531 189 230 C188.32582031 228.92878906 187.65164063 227.85757813 186.95703125 226.75390625 C177.38463297 212.03812979 166.7023972 198.07576356 155 185 C154.16726563 184.05640625 153.33453125 183.1128125 152.4765625 182.140625 C140.585907 168.89626411 128.1227262 155.86985221 114 145 C112.8059726 144.03186967 111.61476865 143.06025096 110.42578125 142.0859375 C102.88249559 135.92090028 95.22479908 130.23928482 87 125 C85.6827899 124.12490668 84.36644215 123.24851449 83.05078125 122.37109375 C57.02942772 105.23110579 29.26794002 93.45283572 0 83 C0 55.61 0 28.22 0 0 Z " fill="#8B51FD" transform="translate(1096,272)"/>
</svg>
